# xmcd
#
# Track frame offsets:
#  150
#  10225
#  20032
#  30785
#  42430
#  54837
#  67147
#  78070
#  90900
#  102035
#  111845
#  121327
#  132010
#  141522
#  151085
#  161495
#  174290
#  186334
#  196475
#  207082
#  219042
#  229037
#  246290
#  256357
#  269012
#  279790
#
# Disc length: 3903 seconds
#
# Revision: 0
# Processed by: cddbd v1.5.1PL0 Copyright (c) Steve Scherf et al.
# Submitted via: Collectorz.com Music Collector 6.9
#
DISCID=550f3d1a
DTITLE=Sammy Turner - Lavender Blue Moods ( the complete story)
DYEAR=1900
DGENRE=Male singer
TTITLE0=Raincoat ln a river
TTITLE1=Little sir echo
TTITLE2=Love keeps calling
TTITLE3=Pour it on
TTITLE4=Let's donkey on down
TTITLE5=Goodnight irene
TTITLE6=Stay my love
TTITLE7=The house I live in
TTITLE8=For your love l'll die
TTITLE9=Honey
TTITLE10=I'd be a fool again
TTITLE11=Fools fall in love
TTITLE12=Paradise
TTITLE13=I want to be loved
TTITLE14=Lavender blue
TTITLE15=The things I love
TTITLE16=I can dream cant I ?
TTITLE17=Wrapped up in a dream
TTITLE18=Falling
TTITLE19=Symphony
TTITLE20=Always
TTITLE21=Nothing can separate our love
TTITLE22=Give my heart a break
TTITLE23=Starlight, starbright
TTITLE24=Right now
TTITLE25=Only you
EXTD=
EXTT0=
EXTT1=
EXTT2=
EXTT3=
EXTT4=
EXTT5=
EXTT6=
EXTT7=
EXTT8=
EXTT9=
EXTT10=
EXTT11=
EXTT12=
EXTT13=
EXTT14=
EXTT15=
EXTT16=
EXTT17=
EXTT18=
EXTT19=
EXTT20=
EXTT21=
EXTT22=
EXTT23=
EXTT24=
EXTT25=
PLAYORDER=
